<svg xmlns="http://www.w3.org/2000/svg" width="320" height="180" viewBox="0 0 320 180" fill="none">
  <rect width="320" height="180" fill="#FAF9F6"/>
  <rect x="42" y="30" width="236" height="120" rx="2" fill="#F4F2ED" stroke="#111111" stroke-width="1.5"/>
  <path d="M42 50h236M91 50v100" stroke="#B8B4AB"/><path d="M55 66h23M55 80h17M55 94h20M55 108h15" stroke="#111111" stroke-width="2"/>
  <path d="M111 67h84" stroke="#111111" stroke-width="3"/>
  <g stroke="#B8B4AB"><path d="M111 82h146M111 103h146M111 124h146"/></g>
  <g fill="#111111"><rect x="112" y="89" width="8" height="8"/><rect x="112" y="110" width="8" height="8"/><rect x="112" y="131" width="8" height="8"/></g>
  <path d="M130 93h64M130 114h46M130 135h58" stroke="#111111"/>
  <path d="m239 91 4 4 7-8m-11 24 4 4 7-8m-11 24 4 4 7-8" stroke="#111111" stroke-width="1.5"/>
</svg>
