<svg xmlns="http://www.w3.org/2000/svg" width="480" height="420" viewBox="0 0 480 420" fill="none">
  <rect width="480" height="420" fill="#FAF9F6"/>
  <g stroke="#D7D4CC"><path d="M40 40h400M40 380h400M40 40v340M440 40v340"/></g>
  <path d="M240 124v37m0 87v39" stroke="#111111" stroke-width="1.5"/>
  <path d="m235 155 5 6 5-6m-10 126 5 6 5-6" stroke="#111111" stroke-width="1.5"/>
  <rect x="98" y="66" width="284" height="58" rx="2" fill="#F4F2ED" stroke="#111111" stroke-width="1.5"/>
  <circle cx="121" cy="95" r="7" stroke="#111111" stroke-width="1.5"/><path d="M134 90h23m-23 10h16" stroke="#111111" stroke-width="1.5"/>
  <text x="182" y="100" fill="#111111" font-family="Helvetica,Arial,sans-serif" font-size="15">User interface</text>
  <rect x="98" y="161" width="284" height="87" rx="2" fill="#111111"/>
  <path d="M122 185v38m-8-30 8-8 8 8m-8 30 8-8m-8 8-8-8" stroke="#F4F2ED" stroke-width="1.5"/>
  <text x="155" y="200" fill="#F4F2ED" font-family="Helvetica,Arial,sans-serif" font-size="15">Application logic</text>
  <text x="155" y="222" fill="#B8B4AB" font-family="Helvetica,Arial,sans-serif" font-size="12">Workflows, rules &amp; APIs</text>
  <rect x="98" y="287" width="284" height="66" rx="2" fill="#F4F2ED" stroke="#111111" stroke-width="1.5"/>
  <ellipse cx="125" cy="310" rx="12" ry="5" stroke="#111111" stroke-width="1.5"/><path d="M113 310v17c0 7 24 7 24 0v-17m-24 8c0 7 24 7 24 0" stroke="#111111" stroke-width="1.5"/>
  <text x="155" y="325" fill="#111111" font-family="Helvetica,Arial,sans-serif" font-size="15">Data &amp; connected services</text>
  <g fill="#111111"><circle cx="40" cy="40" r="2"/><circle cx="440" cy="40" r="2"/><circle cx="40" cy="380" r="2"/><circle cx="440" cy="380" r="2"/></g>
</svg>
